<?xml version="1.0" encoding="UTF-8" standalone="no"?>
<!DOCTYPE svg PUBLIC "-//W3C//DTD SVG 1.1//EN" "http://www.w3.org/Graphics/SVG/1.1/DTD/svg11.dtd">
<svg width="100%" height="100%" viewBox="0 0 2213 426" version="1.1" xmlns="http://www.w3.org/2000/svg" xmlns:xlink="http://www.w3.org/1999/xlink" xml:space="preserve" xmlns:serif="http://www.serif.com/" style="fill-rule:evenodd;clip-rule:evenodd;stroke-linejoin:round;stroke-miterlimit:2;">
    <g transform="matrix(1,0,0,1,-1796.55,-285.603)">
        <g id="Artboard2" transform="matrix(1.6543,0,0,0.318193,-581.508,285.603)">
            <rect x="1437.5" y="0" width="1337.5" height="1337.5" style="fill:none;"/>
            <g transform="matrix(0.140185,1.66791e-17,-3.20811e-18,0.72883,1970.74,838.686)">
                <g transform="matrix(1050.32,0,0,1050.32,-1634.01,139.683)">
                    <path d="M0.32,0.007C0.271,0.007 0.228,-0.004 0.19,-0.025C0.153,-0.048 0.125,-0.078 0.104,-0.118C0.083,-0.158 0.073,-0.204 0.073,-0.257L0.073,-0.452C0.073,-0.506 0.083,-0.552 0.104,-0.592C0.125,-0.632 0.153,-0.662 0.19,-0.684C0.228,-0.706 0.271,-0.717 0.32,-0.717C0.361,-0.717 0.399,-0.709 0.433,-0.692C0.467,-0.675 0.495,-0.652 0.518,-0.622C0.541,-0.592 0.557,-0.556 0.565,-0.516L0.495,-0.516C0.487,-0.543 0.474,-0.567 0.456,-0.587C0.438,-0.608 0.417,-0.624 0.394,-0.635C0.37,-0.646 0.346,-0.652 0.32,-0.652C0.267,-0.652 0.224,-0.634 0.192,-0.597C0.16,-0.561 0.144,-0.512 0.144,-0.452L0.144,-0.257C0.144,-0.197 0.16,-0.149 0.192,-0.113C0.224,-0.076 0.267,-0.058 0.32,-0.058C0.358,-0.058 0.394,-0.07 0.427,-0.093C0.46,-0.117 0.483,-0.151 0.495,-0.194L0.565,-0.194C0.557,-0.153 0.541,-0.118 0.518,-0.088C0.495,-0.058 0.466,-0.035 0.433,-0.018C0.399,-0.001 0.361,0.007 0.32,0.007Z" style="fill-rule:nonzero;"/>
                </g>
                <g transform="matrix(1050.32,0,0,1050.32,-836.933,139.683)">
                    <path d="M0.088,-0L0.088,-0.71L0.158,-0.71L0.158,-0L0.088,-0ZM0.136,-0L0.136,-0.065L0.544,-0.065L0.544,-0L0.136,-0ZM0.136,-0.32L0.136,-0.385L0.49,-0.385L0.49,-0.32L0.136,-0.32ZM0.136,-0.645L0.136,-0.71L0.544,-0.71L0.544,-0.645L0.136,-0.645Z" style="fill-rule:nonzero;"/>
                </g>
                <g transform="matrix(1050.32,0,0,1050.32,-51.6512,139.683)">
                    <path d="M0.088,-0L0.088,-0.71L0.159,-0.71L0.571,-0.07L0.542,-0.09L0.542,-0.71L0.612,-0.71L0.612,-0L0.541,-0L0.12,-0.645L0.158,-0.617L0.158,-0L0.088,-0Z" style="fill-rule:nonzero;"/>
                </g>
                <g transform="matrix(1050.32,0,0,1050.32,882.358,139.683)">
                    <path d="M0.206,-0L0.206,-0.681L0.276,-0.681L0.276,-0L0.206,-0ZM-0.01,-0.645L-0.01,-0.71L0.491,-0.71L0.491,-0.645L-0.01,-0.645Z" style="fill-rule:nonzero;"/>
                </g>
                <g transform="matrix(1050.32,0,0,1050.32,1545.58,139.683)">
                    <path d="M0.323,0.007C0.27,0.007 0.225,-0.003 0.188,-0.023C0.15,-0.044 0.122,-0.074 0.103,-0.113C0.083,-0.152 0.073,-0.199 0.073,-0.254L0.073,-0.456C0.073,-0.511 0.083,-0.558 0.103,-0.597C0.122,-0.636 0.15,-0.666 0.188,-0.687C0.225,-0.707 0.27,-0.717 0.323,-0.717C0.376,-0.717 0.421,-0.707 0.458,-0.687C0.495,-0.666 0.523,-0.636 0.543,-0.597C0.563,-0.558 0.572,-0.511 0.572,-0.456L0.572,-0.254C0.572,-0.199 0.563,-0.152 0.543,-0.113C0.523,-0.074 0.495,-0.044 0.458,-0.023C0.421,-0.003 0.376,0.007 0.323,0.007ZM0.323,-0.058C0.38,-0.058 0.424,-0.075 0.455,-0.108C0.486,-0.142 0.502,-0.19 0.502,-0.251L0.502,-0.459C0.502,-0.52 0.486,-0.568 0.455,-0.601C0.424,-0.635 0.38,-0.652 0.323,-0.652C0.266,-0.652 0.222,-0.635 0.19,-0.601C0.159,-0.568 0.144,-0.52 0.144,-0.459L0.144,-0.251C0.144,-0.19 0.159,-0.142 0.19,-0.108C0.222,-0.075 0.266,-0.058 0.323,-0.058Z" style="fill-rule:nonzero;"/>
                </g>
                <g transform="matrix(1050.32,0,0,1050.32,2360.61,139.683)">
                    <path d="M0.301,0.007C0.267,0.007 0.234,0.004 0.204,-0.002C0.173,-0.009 0.145,-0.019 0.118,-0.032C0.092,-0.045 0.067,-0.061 0.044,-0.081L0.086,-0.136C0.116,-0.11 0.149,-0.091 0.185,-0.078C0.22,-0.065 0.259,-0.058 0.301,-0.058C0.362,-0.058 0.41,-0.07 0.443,-0.094C0.476,-0.118 0.493,-0.152 0.493,-0.196L0.493,-0.196C0.493,-0.226 0.485,-0.249 0.468,-0.265C0.452,-0.281 0.431,-0.293 0.404,-0.301C0.378,-0.309 0.35,-0.316 0.319,-0.322C0.291,-0.327 0.263,-0.333 0.234,-0.34C0.206,-0.347 0.18,-0.356 0.156,-0.368C0.132,-0.381 0.113,-0.398 0.099,-0.42C0.085,-0.442 0.078,-0.472 0.078,-0.509L0.078,-0.509C0.078,-0.575 0.1,-0.626 0.144,-0.663C0.188,-0.699 0.25,-0.717 0.33,-0.717C0.367,-0.717 0.404,-0.711 0.44,-0.699C0.477,-0.687 0.513,-0.668 0.548,-0.643L0.506,-0.588C0.476,-0.609 0.446,-0.625 0.417,-0.636C0.387,-0.646 0.358,-0.652 0.33,-0.652C0.272,-0.652 0.227,-0.64 0.195,-0.615C0.163,-0.591 0.147,-0.557 0.147,-0.512L0.147,-0.512C0.147,-0.482 0.156,-0.46 0.174,-0.445C0.192,-0.43 0.215,-0.418 0.244,-0.41C0.273,-0.402 0.304,-0.395 0.336,-0.389C0.363,-0.383 0.39,-0.377 0.417,-0.369C0.444,-0.362 0.468,-0.351 0.49,-0.338C0.512,-0.325 0.529,-0.308 0.542,-0.285C0.556,-0.263 0.562,-0.234 0.562,-0.199L0.562,-0.198C0.562,-0.133 0.539,-0.082 0.494,-0.046C0.448,-0.011 0.384,0.007 0.301,0.007Z" style="fill-rule:nonzero;"/>
                </g>
                <g transform="matrix(1050.32,0,0,1050.32,3164.86,139.683)">
                    <path d="M0.518,-0.71L0.287,-0.289L0.287,-0L0.216,-0L0.216,-0.289L-0.015,-0.71L0.062,-0.71L0.251,-0.355L0.441,-0.71L0.518,-0.71Z" style="fill-rule:nonzero;"/>
                </g>
                <g transform="matrix(1050.32,0,0,1050.32,3855.78,139.683)">
                    <path d="M0.088,-0L0.088,-0.71L0.159,-0.71L0.571,-0.07L0.542,-0.09L0.542,-0.71L0.612,-0.71L0.612,-0L0.541,-0L0.12,-0.645L0.158,-0.617L0.158,-0L0.088,-0Z" style="fill-rule:nonzero;"/>
                </g>
                <g transform="matrix(1050.32,0,0,1050.32,4748.76,139.683)">
                    <path d="M0.32,0.007C0.271,0.007 0.228,-0.004 0.19,-0.025C0.153,-0.048 0.125,-0.078 0.104,-0.118C0.083,-0.158 0.073,-0.204 0.073,-0.257L0.073,-0.452C0.073,-0.506 0.083,-0.552 0.104,-0.592C0.125,-0.632 0.153,-0.662 0.19,-0.684C0.228,-0.706 0.271,-0.717 0.32,-0.717C0.361,-0.717 0.399,-0.709 0.433,-0.692C0.467,-0.675 0.495,-0.652 0.518,-0.622C0.541,-0.592 0.557,-0.556 0.565,-0.516L0.495,-0.516C0.487,-0.543 0.474,-0.567 0.456,-0.587C0.438,-0.608 0.417,-0.624 0.394,-0.635C0.37,-0.646 0.346,-0.652 0.32,-0.652C0.267,-0.652 0.224,-0.634 0.192,-0.597C0.16,-0.561 0.144,-0.512 0.144,-0.452L0.144,-0.257C0.144,-0.197 0.16,-0.149 0.192,-0.113C0.224,-0.076 0.267,-0.058 0.32,-0.058C0.358,-0.058 0.394,-0.07 0.427,-0.093C0.46,-0.117 0.483,-0.151 0.495,-0.194L0.565,-0.194C0.557,-0.153 0.541,-0.118 0.518,-0.088C0.495,-0.058 0.466,-0.035 0.433,-0.018C0.399,-0.001 0.361,0.007 0.32,0.007Z" style="fill-rule:nonzero;"/>
                </g>
            </g>
            <g id="c" transform="matrix(0.227569,0,0,1.18314,1059.92,10.0629)">
                <g transform="matrix(1.9902,-1.17505e-16,0,1.9902,1262.44,73.1369)">
                    <path d="M484.076,451.675C452.763,451.675 426.045,445.768 403.92,433.956C381.982,421.956 365.201,404.612 353.576,381.925C341.951,359.05 336.138,331.487 336.138,299.237L336.138,187.018C336.138,154.581 341.951,127.018 353.576,104.331C365.201,81.643 381.982,64.3 403.92,52.3C426.045,40.3 452.763,34.3 484.076,34.3C509.951,34.3 532.92,39.831 552.982,50.893C573.232,61.956 589.92,77.987 603.045,98.987C616.357,119.987 625.545,145.487 630.607,175.487L550.732,175.487C547.732,161.8 543.045,150.268 536.67,140.893C530.482,131.331 522.888,124.018 513.888,118.956C505.076,113.893 495.138,111.362 484.076,111.362C462.513,111.362 445.732,118.018 433.732,131.331C421.92,144.456 416.013,163.018 416.013,187.018L416.013,299.237C416.013,323.237 421.92,341.8 433.732,354.925C445.732,368.05 462.513,374.612 484.076,374.612C500.951,374.612 515.201,369.081 526.826,358.018C538.451,346.768 546.42,330.925 550.732,310.487L630.607,310.487C625.357,340.3 616.076,365.8 602.763,386.987C589.638,407.987 573.045,424.018 552.982,435.081C532.92,446.143 509.951,451.675 484.076,451.675Z" style="fill-rule:nonzero;"/>
                </g>
                <g transform="matrix(-6.47377e-18,1.32796,-0.844951,5.83348e-17,2814.78,-181.649)">
                    <path d="M556.022,351.865L650.09,540L461.955,540L556.022,351.865Z"/>
                </g>
                <g transform="matrix(-6.78704e-16,3.00855,-3.00855,-6.78704e-16,3555.02,-1486.75)">
                    <circle cx="632.749" cy="442.266" r="32.82"/>
                </g>
            </g>
        </g>
    </g>
</svg>
