<?xml version="1.0" encoding="UTF-8" standalone="no"?>
<!DOCTYPE svg PUBLIC "-//W3C//DTD SVG 1.1//EN" "http://www.w3.org/Graphics/SVG/1.1/DTD/svg11.dtd">
<svg width="100%" height="100%" viewBox="0 0 2213 426" version="1.1" xmlns="http://www.w3.org/2000/svg" xmlns:xlink="http://www.w3.org/1999/xlink" xml:space="preserve" xmlns:serif="http://www.serif.com/" style="fill-rule:evenodd;clip-rule:evenodd;stroke-linejoin:round;stroke-miterlimit:2;">
    <g transform="matrix(1,0,0,1,-1796.55,-285.603)">
        <g id="Artboard2" transform="matrix(1.6543,0,0,0.318193,-581.508,285.603)">
            <rect x="1437.5" y="0" width="1337.5" height="1337.5" style="fill:none;"/>
            <g transform="matrix(0.238672,2.83969e-17,-5.46194e-18,1.24086,1877.89,958.073)">
                <g transform="matrix(1050.32,0,0,1050.32,-1634.01,139.683)">
                    <path d="M0.214,0.007C0.179,0.007 0.149,0 0.125,-0.014C0.1,-0.028 0.081,-0.049 0.068,-0.076C0.055,-0.103 0.049,-0.136 0.049,-0.174L0.049,-0.535C0.049,-0.574 0.055,-0.607 0.068,-0.634C0.081,-0.661 0.1,-0.681 0.125,-0.696C0.149,-0.71 0.179,-0.717 0.214,-0.717C0.249,-0.717 0.279,-0.71 0.303,-0.696C0.328,-0.681 0.347,-0.661 0.359,-0.634C0.372,-0.607 0.379,-0.574 0.379,-0.536L0.379,-0.51L0.309,-0.51L0.309,-0.536C0.309,-0.56 0.305,-0.58 0.297,-0.597C0.29,-0.614 0.279,-0.627 0.265,-0.636C0.251,-0.645 0.234,-0.649 0.214,-0.649C0.184,-0.649 0.161,-0.639 0.144,-0.62C0.127,-0.6 0.119,-0.572 0.119,-0.535L0.119,-0.174C0.119,-0.138 0.127,-0.11 0.144,-0.09C0.161,-0.07 0.184,-0.061 0.214,-0.061C0.244,-0.061 0.267,-0.07 0.284,-0.09C0.3,-0.11 0.309,-0.138 0.309,-0.174L0.309,-0.2L0.379,-0.2L0.379,-0.174C0.379,-0.136 0.372,-0.103 0.359,-0.076C0.347,-0.049 0.328,-0.028 0.303,-0.014C0.279,0 0.249,0.007 0.214,0.007Z" style="fill-rule:nonzero;"/>
                </g>
                <g transform="matrix(1050.32,0,0,1050.32,-1047.72,139.683)">
                    <path d="M0.049,-0L0.049,-0.71L0.119,-0.71L0.119,-0L0.049,-0ZM0.097,-0L0.097,-0.065L0.354,-0.065L0.354,-0L0.097,-0ZM0.097,-0.32L0.097,-0.385L0.329,-0.385L0.329,-0.32L0.097,-0.32ZM0.097,-0.645L0.097,-0.71L0.354,-0.71L0.354,-0.645L0.097,-0.645Z" style="fill-rule:nonzero;"/>
                </g>
                <g transform="matrix(1050.32,0,0,1050.32,-493.218,139.683)">
                    <path d="M0.049,-0L0.049,-0.71L0.115,-0.71L0.34,-0.127L0.328,-0.114L0.328,-0.71L0.397,-0.71L0.397,-0L0.331,-0L0.106,-0.583L0.118,-0.596L0.118,-0L0.049,-0Z" style="fill-rule:nonzero;"/>
                </g>
                <g transform="matrix(1050.32,0,0,1050.32,174.107,139.683)">
                    <path d="M0.137,-0L0.137,-0.652L0.208,-0.652L0.208,-0L0.137,-0ZM0,-0.645L0,-0.71L0.345,-0.71L0.345,-0.645L0,-0.645Z" style="fill-rule:nonzero;"/>
                </g>
                <g transform="matrix(1050.32,0,0,1050.32,693.73,139.683)">
                    <path d="M0.225,0.007C0.188,0.007 0.156,0 0.13,-0.014C0.104,-0.028 0.083,-0.048 0.069,-0.074C0.056,-0.101 0.049,-0.133 0.049,-0.171L0.049,-0.539C0.049,-0.577 0.056,-0.609 0.069,-0.635C0.083,-0.662 0.104,-0.682 0.13,-0.696C0.156,-0.71 0.188,-0.717 0.225,-0.717C0.263,-0.717 0.294,-0.71 0.32,-0.696C0.347,-0.682 0.367,-0.662 0.38,-0.635C0.394,-0.609 0.401,-0.577 0.401,-0.539L0.401,-0.171C0.401,-0.133 0.394,-0.101 0.38,-0.074C0.367,-0.048 0.347,-0.028 0.32,-0.014C0.294,0 0.263,0.007 0.225,0.007ZM0.225,-0.062C0.259,-0.062 0.285,-0.071 0.303,-0.089C0.322,-0.108 0.331,-0.134 0.331,-0.168L0.331,-0.542C0.331,-0.576 0.322,-0.602 0.303,-0.621C0.285,-0.639 0.259,-0.648 0.225,-0.648C0.192,-0.648 0.166,-0.639 0.147,-0.621C0.128,-0.602 0.119,-0.576 0.119,-0.542L0.119,-0.168C0.119,-0.134 0.128,-0.108 0.147,-0.089C0.166,-0.071 0.192,-0.062 0.225,-0.062Z" style="fill-rule:nonzero;"/>
                </g>
                <g transform="matrix(1050.32,0,0,1050.32,1324.13,139.683)">
                    <path d="M0.212,0.007C0.174,0.007 0.142,0 0.116,-0.013C0.089,-0.027 0.069,-0.047 0.055,-0.073C0.041,-0.099 0.034,-0.131 0.034,-0.168L0.034,-0.206L0.154,-0.207L0.154,-0.169C0.154,-0.151 0.159,-0.137 0.169,-0.126C0.18,-0.116 0.194,-0.111 0.211,-0.111C0.229,-0.111 0.243,-0.116 0.252,-0.126C0.262,-0.137 0.267,-0.15 0.267,-0.168L0.267,-0.23C0.267,-0.245 0.262,-0.257 0.253,-0.267C0.245,-0.277 0.234,-0.286 0.219,-0.293C0.205,-0.302 0.189,-0.31 0.173,-0.318C0.157,-0.326 0.141,-0.335 0.124,-0.345C0.108,-0.355 0.093,-0.367 0.079,-0.381C0.066,-0.396 0.055,-0.413 0.046,-0.434C0.038,-0.454 0.034,-0.479 0.034,-0.508L0.034,-0.544C0.034,-0.599 0.049,-0.642 0.08,-0.672C0.111,-0.702 0.154,-0.717 0.21,-0.717C0.265,-0.717 0.307,-0.702 0.338,-0.671C0.368,-0.641 0.384,-0.598 0.384,-0.542L0.384,-0.502L0.263,-0.501L0.263,-0.542C0.263,-0.56 0.258,-0.574 0.249,-0.584C0.24,-0.594 0.227,-0.6 0.21,-0.6C0.193,-0.6 0.179,-0.595 0.169,-0.585C0.16,-0.576 0.155,-0.564 0.155,-0.547L0.155,-0.5C0.155,-0.483 0.16,-0.47 0.17,-0.459C0.18,-0.449 0.193,-0.439 0.208,-0.431C0.224,-0.423 0.241,-0.415 0.259,-0.405C0.274,-0.397 0.289,-0.389 0.304,-0.38C0.319,-0.371 0.333,-0.36 0.346,-0.347C0.358,-0.334 0.368,-0.318 0.376,-0.298C0.384,-0.279 0.388,-0.255 0.388,-0.227L0.388,-0.168C0.388,-0.113 0.372,-0.069 0.341,-0.039C0.311,-0.008 0.268,0.007 0.212,0.007Z" style="fill:rgb(135,135,135);fill-rule:nonzero;"/>
                </g>
                <g transform="matrix(1050.32,0,0,1050.32,1934.53,139.683)">
                    <path d="M0.367,-0.71L0.239,-0.272L0.239,-0L0.118,-0L0.118,-0.272L-0.015,-0.71L0.111,-0.71L0.177,-0.416L0.241,-0.71L0.367,-0.71Z" style="fill:rgb(135,135,135);fill-rule:nonzero;"/>
                </g>
                <g transform="matrix(1050.32,0,0,1050.32,2466.46,139.683)">
                    <path d="M0.043,-0L0.043,-0.71L0.139,-0.71L0.306,-0.236L0.292,-0.217L0.292,-0.71L0.403,-0.71L0.403,-0L0.307,-0L0.142,-0.447L0.154,-0.466L0.154,-0L0.043,-0Z" style="fill:rgb(135,135,135);fill-rule:nonzero;"/>
                </g>
                <g transform="matrix(1050.32,0,0,1050.32,3092.76,139.683)">
                    <path d="M0.214,0.007C0.178,0.007 0.147,0 0.122,-0.014C0.097,-0.028 0.077,-0.049 0.063,-0.076C0.05,-0.103 0.043,-0.135 0.043,-0.173L0.043,-0.537C0.043,-0.575 0.05,-0.608 0.063,-0.634C0.077,-0.661 0.097,-0.682 0.122,-0.696C0.147,-0.71 0.178,-0.717 0.214,-0.717C0.25,-0.717 0.281,-0.71 0.306,-0.696C0.332,-0.682 0.351,-0.661 0.364,-0.634C0.378,-0.607 0.384,-0.575 0.384,-0.536L0.384,-0.479L0.262,-0.479L0.262,-0.536C0.262,-0.548 0.26,-0.558 0.256,-0.567C0.253,-0.576 0.247,-0.583 0.24,-0.587C0.233,-0.592 0.224,-0.595 0.214,-0.595C0.199,-0.595 0.188,-0.59 0.179,-0.579C0.171,-0.569 0.167,-0.555 0.167,-0.537L0.167,-0.173C0.167,-0.155 0.171,-0.141 0.179,-0.131C0.188,-0.121 0.199,-0.116 0.214,-0.116C0.229,-0.116 0.241,-0.121 0.25,-0.131C0.258,-0.141 0.262,-0.156 0.262,-0.174L0.262,-0.231L0.384,-0.231L0.384,-0.174C0.384,-0.135 0.378,-0.103 0.364,-0.076C0.351,-0.049 0.332,-0.028 0.306,-0.014C0.281,0 0.25,0.007 0.214,0.007Z" style="fill:rgb(135,135,135);fill-rule:nonzero;"/>
                </g>
                <g transform="matrix(1050.32,0,0,1050.32,3531.76,139.683)">
                </g>
            </g>
            <g transform="matrix(0.636967,0,0,3.31162,224.659,-916.082)">
                <rect x="3857.09" y="454.331" width="48.473" height="48.473" style="fill:rgb(192,192,192);"/>
            </g>
        </g>
    </g>
</svg>
